# xmcd
#
# Track frame offsets:
# 150
# 16586
# 27227
# 40019
# 55590
# 65858
# 74442
# 87533
# 100152
# 111039
# 125319
# 134453
# 151253
# 162084
# 173026
# 180242
#
# Disc length: 2412 seconds
#
#
# Revision: 0
# Processed by: cddbd v1.5.1PL0 Copyright (c) Steve Scherf et al.
# Submitted via: FreeRIP 2.60 
#
DISCID=c6096a10
DTITLE=Dalhart Imperials, The - Finally
DYEAR=1900
DGENRE=Country
TTITLE0=Saddle Up
TTITLE1=Pardon Me If I Cry
TTITLE2=Slave In My Castle
TTITLE3=Lost Forever
TTITLE4=Three Cheers For the Loser
TTITLE5=Stud
TTITLE6=What Did I Do
TTITLE7=In Fact
TTITLE8=Please Don't Talk  About Me
TTITLE9=Ranch Party
TTITLE10=Find Yourself In My Arms
TTITLE11=The Bottle Will Hold Me
TTITLE12=Dear Darlin'
TTITLE13=Not Gonna Lay Down
TTITLE14=So Long Vamoose Goodbye
TTITLE15=No Title
EXTD=
EXTT0=
EXTT1=
EXTT2=
EXTT3=
EXTT4=
EXTT5=
EXTT6=
EXTT7=
EXTT8=
EXTT9=
EXTT10=
EXTT11=
EXTT12=
EXTT13=
EXTT14=
EXTT15=
PLAYORDER=
